<svg xmlns="http://www.w3.org/2000/svg" width="36" height="36" viewBox="0 0 36 36"><path d="M 18 0 C 8.064636 0 0 8.0647003 0 18 C 0 27.9354 8.064636 36 18 36 C 27.935364 36 36 27.9354 36 18 C 36 8.0647003 27.935364 0 18 0 z M 18 0.96875 C 27.409528 0.96875 35.03125 8.5905003 35.03125 18 C 35.03125 27.4096 27.409528 35.03125 18 35.03125 C 8.5904716 35.03125 0.96875 27.4096 0.96875 18 C 0.96875 8.5905003 8.5904717 0.96875 18 0.96875 z M 17.96875 7.96875 L 17.96875 8 A 0.50005005 0.50005005 0 0 0 17.6875 8.09375 L 15.1875 9.96875 L 11 9.96875 L 10.5 9.96875 L 10.5 10.46875 L 10.5 13.46875 L 8.8125 14.75 A 0.50005005 0.50005005 0 0 0 8.53125 15.375 A 0.50004996 0.50004996 0 0 0 8.5 15.5 L 8.5 26.5 A 0.50004996 0.50004996 0 0 0 8.5 26.53125 A 0.50004996 0.50004996 0 0 0 8.5 26.59375 A 0.50004996 0.50004996 0 0 0 8.53125 26.625 A 0.50004996 0.50004996 0 0 0 8.53125 26.65625 A 0.50004996 0.50004996 0 0 0 8.5625 26.71875 A 0.50004996 0.50004996 0 0 0 8.59375 26.75 A 0.50004996 0.50004996 0 0 0 8.625 26.78125 A 0.50004996 0.50004996 0 0 0 8.65625 26.8125 A 0.50004999 0.50004999 0 0 0 9 26.96875 A 0.50004999 0.50004999 0 0 0 9.03125 26.96875 L 26.90625 26.96875 A 0.50004999 0.50004999 0 0 0 27.5 26.40625 L 27.5 15.46875 A 0.50004996 0.50004996 0 0 0 27.46875 15.28125 A 0.50005005 0.50005005 0 0 0 27.21875 14.75 L 25.5 13.46875 L 25.5 10.4375 L 25.5 9.9375 L 25.03125 9.9375 A 0.50005005 0.50005005 0 0 0 25 9.9375 L 20.8125 9.9375 L 18.28125 8.0625 A 0.50005005 0.50005005 0 0 0 17.96875 7.96875 z M 18 9.125 L 19.125 9.96875 L 16.84375 9.96875 L 18 9.125 z M 11.5 10.96875 L 15.34375 10.96875 L 20.625 10.96875 L 24.5 10.96875 L 24.5 13.75 L 24.5 16.15625 L 24.46875 16.1875 L 24.4375 16.1875 L 18 20.21875 L 11.5 16.1875 L 11.5 13.75 A 0.50005005 0.50005005 0 0 0 11.5 13.71875 L 11.5 10.96875 z M 19.90625 12.75 A 0.50004999 0.50004999 0 0 0 19.625 12.90625 L 16.71875 16 L 15.34375 14.625 A 0.50004999 0.50004999 0 0 0 15 14.46875 A 0.50004999 0.50004999 0 0 0 14.65625 15.3125 L 16.3125 17 A 0.50013748 0.50013748 0 0 0 16.875 17.1875 A 0.50004999 0.50004999 0 0 0 16.90625 17.1875 A 0.50013748 0.50013748 0 0 0 16.9375 17.15625 A 0.50013748 0.50013748 0 0 0 16.96875 17.15625 A 0.50004999 0.50004999 0 0 0 17.125 17 L 20.34375 13.59375 A 0.50004999 0.50004999 0 0 0 20.03125 12.75 A 0.50004999 0.50004999 0 0 0 19.96875 12.75 A 0.50004999 0.50004999 0 0 0 19.90625 12.75 z M 10.5 14.71875 L 10.5 15.5625 L 9.875 15.1875 L 10.5 14.71875 z M 25.5 14.75 L 26.09375 15.1875 L 26 15.21875 L 25.5 15.53125 L 25.5 14.75 z M 26.5 16.09375 L 26.5 25.5625 L 21.28125 22.0625 A 0.50004999 0.50004999 0 0 0 21 22 A 0.50004999 0.50004999 0 0 0 20.71875 22.90625 L 25.34375 26 L 10.65625 26 L 15.28125 22.90625 A 0.50004999 0.50004999 0 0 0 15 22 A 0.50004999 0.50004999 0 0 0 14.71875 22.0625 L 9.5 25.5625 L 9.5 16.125 L 10.5 16.75 L 10.75 16.875 L 17.625 21.1875 L 17.71875 21.25 L 17.75 21.25 A 0.50005005 0.50005005 0 0 0 17.8125 21.28125 A 0.50005005 0.50005005 0 0 0 17.90625 21.3125 A 0.50005005 0.50005005 0 0 0 18 21.3125 A 0.50005005 0.50005005 0 0 0 18.03125 21.3125 A 0.50005005 0.50005005 0 0 0 18.0625 21.3125 A 0.50005005 0.50005005 0 0 0 18.09375 21.3125 A 0.50005005 0.50005005 0 0 0 18.15625 21.3125 A 0.50005005 0.50005005 0 0 0 18.1875 21.28125 A 0.50005005 0.50005005 0 0 0 18.21875 21.28125 L 25.5 16.71875 L 26.5 16.09375 z " color="#000" font-family="Sans" font-weight="400" overflow="visible" style="text-indent:0;text-align:start;line-height:normal;text-transform:none;block-progression:tb;marker:none;-inkscape-font-specification:Sans"/></svg>