<svg xmlns="http://www.w3.org/2000/svg" width="48" height="48" viewBox="0 0 48 48"><path style="line-height:normal;-inkscape-font-specification:Sans;text-indent:0;text-align:start;text-decoration-line:none;text-transform:none;block-progression:tb;marker:none" d="M 24 0 C 10.751464 0 -3.7000003e-005 10.748847 0 23.998047 C 1.8999997e-005 37.247147 10.751505 48 24 48 C 37.248495 48 47.999981 37.247147 48 23.998047 C 48.000038 10.748847 37.248536 0 24 0 z M 24 1.0078125 C 36.70433 1.0078125 46.992224 11.293247 46.992188 23.998047 C 46.99217 36.702847 36.704291 46.992188 24 46.992188 C 11.295709 46.992188 1.0078305 36.702847 1.0078125 23.998047 C 1.0077755 11.293247 11.29567 1.0078125 24 1.0078125 z M 15.242188 12.164062 L 16.960938 13.882812 L 17.179688 14.101562 L 17.085938 14.414062 L 16.367188 16.539062 L 16.304688 16.757812 L 16.054688 16.851562 L 13.929688 17.539062 L 13.648438 17.632812 L 13.429688 17.445312 L 11.804688 15.789062 C 11.837328 16.657362 12.079617 17.499613 12.710938 18.132812 C 13.626067 19.049013 14.916647 19.348062 16.085938 19.039062 L 16.367188 18.945312 L 16.585938 19.164062 L 20.960938 23.570312 L 23.085938 21.445312 L 22.429688 20.789062 C 22.258008 20.870062 22.09094 20.973312 21.929688 20.945312 C 21.686286 20.903313 21.48697 20.783713 21.335938 20.632812 C 21.184904 20.481612 21.065737 20.313813 21.023438 20.070312 C 20.994898 19.906013 21.094517 19.713063 21.179688 19.539062 L 18.679688 17.039062 L 18.492188 16.851562 L 18.554688 16.570312 C 18.86364 15.401213 18.594607 14.110212 17.679688 13.195312 C 17.023536 12.540912 16.143442 12.174062 15.242188 12.164062 z M 33.648438 12.289062 L 32.617188 13.320312 L 34.398438 15.101562 L 35.429688 14.070312 L 33.648438 12.289062 z M 31.929688 14.039062 L 30.960938 15.007812 L 32.742188 16.789062 L 33.710938 15.820312 L 31.929688 14.039062 z M 28.617188 14.070312 L 22.867188 19.820312 L 23.804688 20.726562 L 23.867188 20.664062 C 23.877087 20.653063 23.887567 20.642812 23.898438 20.632812 L 24.179688 20.351562 L 29.554688 14.976562 L 28.617188 14.070312 z M 30.273438 15.695312 L 24.960938 21.007812 L 26.742188 22.789062 L 32.054688 17.476562 L 30.273438 15.695312 z M 24.242188 21.695312 L 14.210938 31.726562 L 15.992188 33.507812 L 26.023438 23.476562 L 24.242188 21.695312 z M 26.273438 24.632812 L 24.179688 26.757812 L 28.679688 31.257812 L 28.867188 31.476562 L 28.804688 31.757812 C 28.495735 32.926913 28.764778 34.186663 29.679688 35.101562 C 30.300586 35.720863 31.142326 35.963812 31.992188 36.007812 L 30.398438 34.414062 L 30.179688 34.195312 L 30.273438 33.914062 L 30.992188 31.789062 L 31.054688 31.539062 L 31.304688 31.476562 L 33.429688 30.757812 L 33.710938 30.664062 L 33.929688 30.882812 L 35.554688 32.507812 C 35.522307 31.639113 35.280138 30.795763 34.648438 30.164062 C 33.733295 29.247963 32.442729 28.948712 31.273438 29.257812 L 30.992188 29.351562 L 30.804688 29.132812 L 26.304688 24.632812 L 26.273438 24.632812 z M 14.054688 33.132812 L 13.085938 34.101562 L 13.835938 34.851562 L 14.804688 33.882812 L 14.054688 33.132812 z M 12.804688 34.601562 L 12.117188 35.289062 L 12.554688 35.726562 L 13.242188 35.039062 L 12.804688 34.601562 z " color="#000" font-family="Sans" font-weight="400" overflow="visible"/></svg>